<svg width="409" height="283" viewBox="0 0 409 283" fill="none" xmlns="http://www.w3.org/2000/svg">
<path d="M45.5682 46L36.0227 11.0909H40.3182L47.6136 39.5227H47.9545L55.3864 11.0909H60.1591L67.5909 39.5227H67.9318L75.2273 11.0909H79.5227L69.9773 46H65.6136L57.9091 18.1818H57.6364L49.9318 46H45.5682ZM84.7898 46V11.0909H105.858V14.8409H89.017V26.6364H104.767V30.3864H89.017V42.25H106.131V46H84.7898ZM113.477 46V11.0909H117.705V42.25H133.932V46H113.477ZM167.209 22H162.982C162.732 20.7841 162.294 19.7159 161.669 18.7955C161.055 17.875 160.305 17.1023 159.419 16.4773C158.544 15.8409 157.572 15.3636 156.504 15.0455C155.436 14.7273 154.322 14.5682 153.163 14.5682C151.05 14.5682 149.135 15.1023 147.419 16.1705C145.714 17.2386 144.357 18.8125 143.345 20.892C142.345 22.9716 141.845 25.5227 141.845 28.5455C141.845 31.5682 142.345 34.1193 143.345 36.1989C144.357 38.2784 145.714 39.8523 147.419 40.9205C149.135 41.9886 151.05 42.5227 153.163 42.5227C154.322 42.5227 155.436 42.3636 156.504 42.0455C157.572 41.7273 158.544 41.2557 159.419 40.6307C160.305 39.9943 161.055 39.2159 161.669 38.2955C162.294 37.3636 162.732 36.2955 162.982 35.0909H167.209C166.891 36.875 166.311 38.4716 165.47 39.8807C164.629 41.2898 163.584 42.4886 162.334 43.4773C161.084 44.4545 159.68 45.1989 158.124 45.7102C156.578 46.2216 154.925 46.4773 153.163 46.4773C150.186 46.4773 147.538 45.75 145.22 44.2955C142.902 42.8409 141.078 40.7727 139.749 38.0909C138.419 35.4091 137.754 32.2273 137.754 28.5455C137.754 24.8636 138.419 21.6818 139.749 19C141.078 16.3182 142.902 14.25 145.22 12.7955C147.538 11.3409 150.186 10.6136 153.163 10.6136C154.925 10.6136 156.578 10.8693 158.124 11.3807C159.68 11.892 161.084 12.642 162.334 13.6307C163.584 14.608 164.629 15.8011 165.47 17.2102C166.311 18.608 166.891 20.2045 167.209 22ZM203.494 28.5455C203.494 32.2273 202.83 35.4091 201.5 38.0909C200.17 40.7727 198.347 42.8409 196.028 44.2955C193.71 45.75 191.063 46.4773 188.085 46.4773C185.108 46.4773 182.46 45.75 180.142 44.2955C177.824 42.8409 176 40.7727 174.67 38.0909C173.341 35.4091 172.676 32.2273 172.676 28.5455C172.676 24.8636 173.341 21.6818 174.67 19C176 16.3182 177.824 14.25 180.142 12.7955C182.46 11.3409 185.108 10.6136 188.085 10.6136C191.063 10.6136 193.71 11.3409 196.028 12.7955C198.347 14.25 200.17 16.3182 201.5 19C202.83 21.6818 203.494 24.8636 203.494 28.5455ZM199.403 28.5455C199.403 25.5227 198.898 22.9716 197.886 20.892C196.886 18.8125 195.528 17.2386 193.812 16.1705C192.108 15.1023 190.199 14.5682 188.085 14.5682C185.972 14.5682 184.057 15.1023 182.341 16.1705C180.636 17.2386 179.278 18.8125 178.267 20.892C177.267 22.9716 176.767 25.5227 176.767 28.5455C176.767 31.5682 177.267 34.1193 178.267 36.1989C179.278 38.2784 180.636 39.8523 182.341 40.9205C184.057 41.9886 185.972 42.5227 188.085 42.5227C190.199 42.5227 192.108 41.9886 193.812 40.9205C195.528 39.8523 196.886 38.2784 197.886 36.1989C198.898 34.1193 199.403 31.5682 199.403 28.5455ZM210.602 11.0909H215.648L227.511 40.0682H227.92L239.784 11.0909H244.83V46H240.875V19.4773H240.534L229.625 46H225.807L214.898 19.4773H214.557V46H210.602V11.0909ZM253.305 46V11.0909H274.374V14.8409H257.533V26.6364H273.283V30.3864H257.533V42.25H274.646V46H253.305ZM293.584 14.8409V11.0909H319.766V14.8409H308.788V46H304.561V14.8409H293.584ZM354.291 28.5455C354.291 32.2273 353.626 35.4091 352.297 38.0909C350.967 40.7727 349.143 42.8409 346.825 44.2955C344.507 45.75 341.859 46.4773 338.882 46.4773C335.905 46.4773 333.257 45.75 330.939 44.2955C328.621 42.8409 326.797 40.7727 325.467 38.0909C324.138 35.4091 323.473 32.2273 323.473 28.5455C323.473 24.8636 324.138 21.6818 325.467 19C326.797 16.3182 328.621 14.25 330.939 12.7955C333.257 11.3409 335.905 10.6136 338.882 10.6136C341.859 10.6136 344.507 11.3409 346.825 12.7955C349.143 14.25 350.967 16.3182 352.297 19C353.626 21.6818 354.291 24.8636 354.291 28.5455ZM350.2 28.5455C350.2 25.5227 349.695 22.9716 348.683 20.892C347.683 18.8125 346.325 17.2386 344.609 16.1705C342.905 15.1023 340.996 14.5682 338.882 14.5682C336.768 14.5682 334.854 15.1023 333.138 16.1705C331.433 17.2386 330.075 18.8125 329.064 20.892C328.064 22.9716 327.564 25.5227 327.564 28.5455C327.564 31.5682 328.064 34.1193 329.064 36.1989C330.075 38.2784 331.433 39.8523 333.138 40.9205C334.854 41.9886 336.768 42.5227 338.882 42.5227C340.996 42.5227 342.905 41.9886 344.609 40.9205C346.325 39.8523 347.683 38.2784 348.683 36.1989C349.695 34.1193 350.2 31.5682 350.2 28.5455Z" fill="black"/>
<path d="M108.216 186.44C107.256 182.856 105.208 175.368 102.072 163.976C99 152.584 96.28 143.048 93.912 135.368C93.336 133.384 92.472 131.944 91.32 131.048C90.232 130.088 88.696 129.576 86.712 129.512L86.328 128.84L87 123.176C87.896 123.176 89.528 123.208 91.896 123.272C94.264 123.336 96.664 123.368 99.096 123.368C101.976 123.368 105.112 123.272 108.504 123.08C111.96 122.824 114.2 122.664 115.224 122.6L115.704 123.368L115.32 129.032C113.08 129.288 111.448 129.544 110.424 129.8C109.4 129.992 108.696 130.312 108.312 130.76C107.992 131.208 107.832 131.88 107.832 132.776C107.832 134.184 109.08 140.232 111.576 150.92C114.072 161.544 115.8 168.776 116.76 172.616H118.2C119.736 168.712 122.168 161.384 125.496 150.632C128.824 139.88 130.488 133.8 130.488 132.392C130.488 131.304 130.104 130.536 129.336 130.088C128.632 129.64 127.352 129.416 125.496 129.416H121.656L121.272 128.744L121.848 122.888C122.744 122.952 124.696 123.048 127.704 123.176C130.776 123.304 133.56 123.368 136.056 123.368C138.616 123.368 140.92 123.336 142.968 123.272C145.08 123.208 146.488 123.176 147.192 123.176L146.52 129.416C144.92 129.672 143.8 130.12 143.16 130.76C142.52 131.336 141.88 132.552 141.24 134.408L123.48 184.52L108.216 186.44ZM150.938 180.2C153.114 179.944 154.586 179.368 155.354 178.472C156.122 177.512 156.506 175.912 156.506 173.672L156.602 146.312C156.602 144.712 156.442 143.656 156.122 143.144C155.802 142.568 155.13 142.28 154.106 142.28L151.802 142.376L151.226 141.608L151.898 136.712C152.922 136.712 154.874 136.744 157.754 136.808C160.698 136.872 163.834 136.904 167.162 136.904C178.49 136.904 186.554 136.616 191.354 136.04L192.026 136.904C191.834 137.736 191.514 139.56 191.066 142.376C190.682 145.128 190.394 147.976 190.202 150.92L182.234 151.4C182.234 151.208 182.266 150.824 182.33 150.248C182.394 149.608 182.426 149 182.426 148.424C182.426 147.016 182.202 146.024 181.754 145.448C181.306 144.872 180.442 144.488 179.162 144.296C177.882 144.04 175.77 143.912 172.826 143.912C171.098 143.912 170.01 144.04 169.562 144.296C169.178 144.552 168.954 145.192 168.89 146.216L168.41 157.064H175.514C176.666 157.064 178.298 157 180.41 156.872C182.522 156.68 183.93 156.552 184.634 156.488L185.402 157.352L184.25 164.264C183.546 164.264 182.202 164.232 180.218 164.168C178.298 164.104 176.25 164.072 174.074 164.072C172.346 164.072 170.362 164.232 168.122 164.552C167.994 167.624 167.93 170.76 167.93 173.96C167.93 175.368 168.026 176.36 168.218 176.936C168.41 177.512 168.826 177.928 169.466 178.184C170.106 178.376 171.194 178.472 172.73 178.472C175.93 178.472 178.266 178.28 179.738 177.896C181.21 177.448 182.266 176.68 182.906 175.592C183.546 174.44 184.058 172.584 184.442 170.024L191.738 169.448L192.506 170.312C192.314 171.08 191.962 172.872 191.45 175.688C191.002 178.504 190.618 181.48 190.298 184.616L189.434 185.48C187.834 185.416 184.346 185.32 178.97 185.192C173.658 185.064 168.858 185 164.57 185C161.562 185 158.65 185.096 155.834 185.288C153.018 185.544 151.194 185.704 150.362 185.768L150.938 180.2ZM205.69 180.2C207.802 179.944 209.37 179.624 210.394 179.24C211.418 178.792 212.09 178.152 212.41 177.32C212.794 176.424 212.986 175.144 212.986 173.48V171.464C212.986 170.248 212.826 169.096 212.506 168.008C212.186 166.92 211.61 165.608 210.778 164.072L202.81 149.672C201.658 147.496 200.474 145.896 199.258 144.872C198.042 143.848 196.314 143.048 194.074 142.472L193.786 142.088L194.554 136.808C195.386 136.808 196.858 136.84 198.97 136.904C201.082 136.968 203.13 137 205.114 137C206.778 137 209.082 136.936 212.026 136.808C215.034 136.616 217.018 136.488 217.978 136.424L218.458 137.192L217.978 141.896C216.314 141.96 215.162 142.152 214.522 142.472C213.882 142.792 213.562 143.336 213.562 144.104C213.562 144.68 214.234 146.408 215.578 149.288C216.922 152.168 217.722 153.896 217.978 154.472L219.802 158.312H220.57L226.234 146.984C227.066 145.512 227.482 144.36 227.482 143.528C227.482 143.016 227.162 142.632 226.522 142.376C225.946 142.12 224.986 141.96 223.642 141.896L223.354 141.512L223.93 136.712L228.442 136.808C231.258 136.936 233.402 137 234.874 137C236.794 137 238.522 136.968 240.058 136.904C241.658 136.84 242.714 136.776 243.226 136.712L243.514 137.288L242.938 142.28C240.89 142.984 239.194 144.04 237.85 145.448C236.506 146.856 235.034 148.968 233.434 151.784L225.946 165.224C225.306 166.44 224.922 167.656 224.794 168.872C224.666 170.024 224.57 171.976 224.506 174.728C224.506 176.52 224.762 177.768 225.274 178.472C225.85 179.176 226.874 179.528 228.346 179.528C229.242 179.528 230.042 179.496 230.746 179.432C231.514 179.368 232.026 179.336 232.282 179.336L232.57 179.72L231.802 185.384C230.778 185.32 228.89 185.224 226.138 185.096C223.386 185.032 220.698 185 218.074 185C216.154 185 213.722 185.096 210.778 185.288C207.898 185.544 206.01 185.704 205.114 185.768L205.69 180.2ZM266.199 185.864C259.031 185.864 253.399 183.784 249.303 179.624C245.271 175.4 243.255 169.576 243.255 162.152C243.255 156.84 244.311 152.232 246.423 148.328C248.535 144.36 251.543 141.32 255.447 139.208C259.415 137.096 264.023 136.04 269.271 136.04C276.567 136.04 282.231 138.12 286.263 142.28C290.295 146.376 292.311 152.136 292.311 159.56C292.311 164.872 291.223 169.512 289.047 173.48C286.935 177.448 283.895 180.52 279.927 182.696C276.023 184.808 271.447 185.864 266.199 185.864ZM268.119 178.664C271.575 178.664 274.231 177.384 276.087 174.824C277.943 172.264 278.871 168.552 278.871 163.688C278.871 157.16 277.847 152.264 275.799 149C273.815 145.736 270.935 144.104 267.159 144.104C263.767 144.104 261.175 145.352 259.383 147.848C257.591 150.344 256.695 154.056 256.695 158.984C256.695 165.576 257.655 170.504 259.575 173.768C261.559 177.032 264.407 178.664 268.119 178.664Z" fill="black"/>
<path d="M11.25 269H3.17045V242.818H11.608C14.1477 242.818 16.321 243.342 18.1278 244.391C19.9347 245.43 21.3196 246.926 22.2827 248.878C23.2457 250.821 23.7273 253.148 23.7273 255.858C23.7273 258.585 23.2415 260.933 22.2699 262.902C21.2983 264.862 19.8835 266.371 18.0256 267.428C16.1676 268.476 13.9091 269 11.25 269ZM6.34091 266.188H11.0455C13.2102 266.188 15.0043 265.77 16.4276 264.935C17.8509 264.099 18.9119 262.911 19.6108 261.368C20.3097 259.825 20.6591 257.989 20.6591 255.858C20.6591 253.744 20.3139 251.925 19.6236 250.399C18.9332 248.865 17.902 247.689 16.5298 246.871C15.1577 246.044 13.4489 245.631 11.4034 245.631H6.34091V266.188ZM36.6136 269.409C34.8409 269.409 33.2855 268.987 31.9474 268.143C30.6179 267.3 29.5781 266.119 28.8281 264.602C28.0866 263.085 27.7159 261.312 27.7159 259.284C27.7159 257.239 28.0866 255.453 28.8281 253.928C29.5781 252.402 30.6179 251.217 31.9474 250.374C33.2855 249.53 34.8409 249.108 36.6136 249.108C38.3864 249.108 39.9375 249.53 41.267 250.374C42.6051 251.217 43.6449 252.402 44.3864 253.928C45.1364 255.453 45.5114 257.239 45.5114 259.284C45.5114 261.312 45.1364 263.085 44.3864 264.602C43.6449 266.119 42.6051 267.3 41.267 268.143C39.9375 268.987 38.3864 269.409 36.6136 269.409ZM36.6136 266.699C37.9602 266.699 39.0682 266.354 39.9375 265.663C40.8068 264.973 41.4503 264.065 41.8679 262.94C42.2855 261.815 42.4943 260.597 42.4943 259.284C42.4943 257.972 42.2855 256.749 41.8679 255.615C41.4503 254.482 40.8068 253.565 39.9375 252.866C39.0682 252.168 37.9602 251.818 36.6136 251.818C35.267 251.818 34.1591 252.168 33.2898 252.866C32.4205 253.565 31.777 254.482 31.3594 255.615C30.9418 256.749 30.733 257.972 30.733 259.284C30.733 260.597 30.9418 261.815 31.3594 262.94C31.777 264.065 32.4205 264.973 33.2898 265.663C34.1591 266.354 35.267 266.699 36.6136 266.699ZM53.1339 257.188V269H50.1168V249.364H53.0316V252.432H53.2873C53.7475 251.435 54.4464 250.634 55.3839 250.028C56.3214 249.415 57.5316 249.108 59.0146 249.108C60.3441 249.108 61.5075 249.381 62.5046 249.926C63.5018 250.463 64.2773 251.281 64.8313 252.381C65.3853 253.472 65.6623 254.852 65.6623 256.523V269H62.6452V256.727C62.6452 255.185 62.2447 253.983 61.4435 253.122C60.6424 252.253 59.543 251.818 58.1452 251.818C57.1822 251.818 56.3214 252.027 55.5629 252.445C54.8129 252.862 54.2205 253.472 53.7859 254.273C53.3512 255.074 53.1339 256.045 53.1339 257.188ZM73.8345 242.818V245.119C73.8345 245.818 73.7067 246.564 73.451 247.357C73.2038 248.141 72.8374 248.903 72.3516 249.645C71.8743 250.378 71.2947 251.017 70.6129 251.562L68.9766 250.233C69.5135 249.466 69.978 248.669 70.37 247.842C70.7706 247.007 70.9709 246.116 70.9709 245.17V242.818H73.8345ZM86.8871 249.364V251.92H76.7109V249.364H86.8871ZM79.6768 244.659H82.6939V263.375C82.6939 264.227 82.8175 264.866 83.0646 265.293C83.3203 265.71 83.6442 265.991 84.0362 266.136C84.4368 266.273 84.8587 266.341 85.3018 266.341C85.6342 266.341 85.907 266.324 86.12 266.29C86.3331 266.247 86.5036 266.213 86.6314 266.188L87.245 268.898C87.0405 268.974 86.755 269.051 86.3885 269.128C86.022 269.213 85.5575 269.256 84.995 269.256C84.1428 269.256 83.3075 269.072 82.4893 268.706C81.6797 268.339 81.0064 267.781 80.4695 267.031C79.9411 266.281 79.6768 265.335 79.6768 264.193V244.659ZM119.857 251C119.576 250.139 119.205 249.368 118.745 248.686C118.293 247.996 117.752 247.408 117.121 246.922C116.499 246.436 115.792 246.065 114.999 245.81C114.207 245.554 113.337 245.426 112.391 245.426C110.84 245.426 109.43 245.827 108.16 246.628C106.89 247.429 105.88 248.609 105.13 250.169C104.38 251.729 104.005 253.642 104.005 255.909C104.005 258.176 104.384 260.089 105.143 261.649C105.901 263.209 106.928 264.389 108.224 265.19C109.519 265.991 110.977 266.392 112.596 266.392C114.096 266.392 115.417 266.072 116.559 265.433C117.71 264.786 118.604 263.874 119.244 262.697C119.891 261.513 120.215 260.119 120.215 258.517L121.187 258.722H113.312V255.909H123.283V258.722C123.283 260.878 122.823 262.753 121.903 264.347C120.991 265.94 119.729 267.176 118.119 268.054C116.516 268.923 114.675 269.358 112.596 269.358C110.278 269.358 108.241 268.812 106.485 267.722C104.738 266.631 103.374 265.08 102.394 263.068C101.423 261.057 100.937 258.67 100.937 255.909C100.937 253.838 101.214 251.976 101.768 250.322C102.33 248.661 103.123 247.246 104.146 246.078C105.168 244.911 106.379 244.016 107.776 243.393C109.174 242.771 110.712 242.46 112.391 242.46C113.772 242.46 115.059 242.669 116.252 243.087C117.454 243.496 118.523 244.08 119.461 244.838C120.407 245.588 121.195 246.487 121.826 247.536C122.457 248.575 122.891 249.73 123.13 251H119.857ZM129.535 269V249.364H132.552V269H129.535ZM131.069 246.091C130.481 246.091 129.974 245.891 129.548 245.49C129.13 245.089 128.921 244.608 128.921 244.045C128.921 243.483 129.13 243.001 129.548 242.601C129.974 242.2 130.481 242 131.069 242C131.657 242 132.16 242.2 132.577 242.601C133.004 243.001 133.217 243.483 133.217 244.045C133.217 244.608 133.004 245.089 132.577 245.49C132.16 245.891 131.657 246.091 131.069 246.091ZM146.618 249.364V251.92H136.441V249.364H146.618ZM139.407 244.659H142.424V263.375C142.424 264.227 142.548 264.866 142.795 265.293C143.051 265.71 143.375 265.991 143.767 266.136C144.167 266.273 144.589 266.341 145.032 266.341C145.365 266.341 145.637 266.324 145.85 266.29C146.064 266.247 146.234 266.213 146.362 266.188L146.975 268.898C146.771 268.974 146.485 269.051 146.119 269.128C145.752 269.213 145.288 269.256 144.725 269.256C143.873 269.256 143.038 269.072 142.22 268.706C141.41 268.339 140.737 267.781 140.2 267.031C139.672 266.281 139.407 265.335 139.407 264.193V244.659ZM161.69 269V242.818H164.86V266.188H177.031V269H161.69ZM189.508 269.409C187.735 269.409 186.18 268.987 184.842 268.143C183.512 267.3 182.473 266.119 181.723 264.602C180.981 263.085 180.61 261.312 180.61 259.284C180.61 257.239 180.981 255.453 181.723 253.928C182.473 252.402 183.512 251.217 184.842 250.374C186.18 249.53 187.735 249.108 189.508 249.108C191.281 249.108 192.832 249.53 194.162 250.374C195.5 251.217 196.539 252.402 197.281 253.928C198.031 255.453 198.406 257.239 198.406 259.284C198.406 261.312 198.031 263.085 197.281 264.602C196.539 266.119 195.5 267.3 194.162 268.143C192.832 268.987 191.281 269.409 189.508 269.409ZM189.508 266.699C190.855 266.699 191.963 266.354 192.832 265.663C193.701 264.973 194.345 264.065 194.762 262.94C195.18 261.815 195.389 260.597 195.389 259.284C195.389 257.972 195.18 256.749 194.762 255.615C194.345 254.482 193.701 253.565 192.832 252.866C191.963 252.168 190.855 251.818 189.508 251.818C188.162 251.818 187.054 252.168 186.184 252.866C185.315 253.565 184.672 254.482 184.254 255.615C183.836 256.749 183.627 257.972 183.627 259.284C183.627 260.597 183.836 261.815 184.254 262.94C184.672 264.065 185.315 264.973 186.184 265.663C187.054 266.354 188.162 266.699 189.508 266.699ZM216.92 253.761L214.21 254.528C214.04 254.077 213.788 253.638 213.456 253.212C213.132 252.777 212.689 252.419 212.126 252.138C211.564 251.857 210.844 251.716 209.966 251.716C208.764 251.716 207.763 251.993 206.962 252.547C206.169 253.092 205.773 253.787 205.773 254.631C205.773 255.381 206.045 255.973 206.591 256.408C207.136 256.842 207.989 257.205 209.148 257.494L212.062 258.21C213.818 258.636 215.126 259.288 215.987 260.166C216.848 261.036 217.278 262.156 217.278 263.528C217.278 264.653 216.955 265.659 216.307 266.545C215.668 267.432 214.773 268.131 213.622 268.642C212.472 269.153 211.134 269.409 209.608 269.409C207.605 269.409 205.947 268.974 204.635 268.105C203.322 267.236 202.491 265.966 202.142 264.295L205.006 263.58C205.278 264.636 205.794 265.429 206.553 265.957C207.32 266.486 208.321 266.75 209.557 266.75C210.963 266.75 212.08 266.452 212.906 265.855C213.741 265.25 214.159 264.526 214.159 263.682C214.159 263 213.92 262.429 213.443 261.969C212.966 261.5 212.233 261.151 211.244 260.92L207.972 260.153C206.173 259.727 204.852 259.067 204.009 258.172C203.173 257.268 202.756 256.139 202.756 254.784C202.756 253.676 203.067 252.696 203.689 251.844C204.32 250.991 205.176 250.322 206.259 249.837C207.349 249.351 208.585 249.108 209.966 249.108C211.909 249.108 213.435 249.534 214.543 250.386C215.659 251.239 216.452 252.364 216.92 253.761ZM230.36 249.364V251.92H220.184V249.364H230.36ZM223.15 244.659H226.167V263.375C226.167 264.227 226.29 264.866 226.537 265.293C226.793 265.71 227.117 265.991 227.509 266.136C227.909 266.273 228.331 266.341 228.775 266.341C229.107 266.341 229.38 266.324 229.593 266.29C229.806 266.247 229.976 266.213 230.104 266.188L230.718 268.898C230.513 268.974 230.228 269.051 229.861 269.128C229.495 269.213 229.03 269.256 228.468 269.256C227.615 269.256 226.78 269.072 225.962 268.706C225.152 268.339 224.479 267.781 223.942 267.031C223.414 266.281 223.15 265.335 223.15 264.193V244.659ZM268.137 256.369V259.182H232.137V256.369H268.137ZM272.381 242.818L280.154 264.858H280.461L288.233 242.818H291.557L281.944 269H278.671L269.057 242.818H272.381ZM301.631 269.409C299.739 269.409 298.107 268.991 296.735 268.156C295.371 267.312 294.319 266.136 293.577 264.628C292.844 263.111 292.478 261.347 292.478 259.335C292.478 257.324 292.844 255.551 293.577 254.017C294.319 252.474 295.35 251.273 296.671 250.412C298 249.543 299.551 249.108 301.324 249.108C302.347 249.108 303.357 249.278 304.354 249.619C305.351 249.96 306.259 250.514 307.077 251.281C307.895 252.04 308.547 253.045 309.033 254.298C309.519 255.551 309.762 257.094 309.762 258.926V260.205H294.625V257.597H306.694C306.694 256.489 306.472 255.5 306.029 254.631C305.594 253.761 304.972 253.075 304.162 252.572C303.361 252.07 302.415 251.818 301.324 251.818C300.123 251.818 299.083 252.116 298.205 252.713C297.336 253.301 296.667 254.068 296.198 255.014C295.729 255.96 295.495 256.974 295.495 258.057V259.795C295.495 261.278 295.75 262.536 296.262 263.567C296.782 264.589 297.502 265.369 298.422 265.906C299.343 266.435 300.412 266.699 301.631 266.699C302.424 266.699 303.14 266.588 303.779 266.366C304.426 266.136 304.985 265.795 305.453 265.344C305.922 264.884 306.284 264.312 306.54 263.631L309.455 264.449C309.148 265.438 308.632 266.307 307.908 267.057C307.184 267.798 306.289 268.378 305.223 268.795C304.158 269.205 302.961 269.409 301.631 269.409ZM315.697 276.364C315.185 276.364 314.729 276.321 314.329 276.236C313.928 276.159 313.651 276.082 313.498 276.006L314.265 273.347C314.998 273.534 315.646 273.602 316.208 273.551C316.771 273.5 317.269 273.249 317.704 272.797C318.147 272.354 318.552 271.634 318.918 270.636L319.481 269.102L312.219 249.364H315.492L320.913 265.011H321.117L326.538 249.364H329.81L321.475 271.864C321.1 272.878 320.636 273.717 320.082 274.382C319.528 275.055 318.884 275.554 318.151 275.878C317.427 276.202 316.609 276.364 315.697 276.364ZM341.067 269.409C339.294 269.409 337.739 268.987 336.401 268.143C335.071 267.3 334.031 266.119 333.281 264.602C332.54 263.085 332.169 261.312 332.169 259.284C332.169 257.239 332.54 255.453 333.281 253.928C334.031 252.402 335.071 251.217 336.401 250.374C337.739 249.53 339.294 249.108 341.067 249.108C342.839 249.108 344.391 249.53 345.72 250.374C347.058 251.217 348.098 252.402 348.839 253.928C349.589 255.453 349.964 257.239 349.964 259.284C349.964 261.312 349.589 263.085 348.839 264.602C348.098 266.119 347.058 267.3 345.72 268.143C344.391 268.987 342.839 269.409 341.067 269.409ZM341.067 266.699C342.413 266.699 343.521 266.354 344.391 265.663C345.26 264.973 345.903 264.065 346.321 262.94C346.739 261.815 346.947 260.597 346.947 259.284C346.947 257.972 346.739 256.749 346.321 255.615C345.903 254.482 345.26 253.565 344.391 252.866C343.521 252.168 342.413 251.818 341.067 251.818C339.72 251.818 338.612 252.168 337.743 252.866C336.874 253.565 336.23 254.482 335.812 255.615C335.395 256.749 335.186 257.972 335.186 259.284C335.186 260.597 335.395 261.815 335.812 262.94C336.23 264.065 336.874 264.973 337.743 265.663C338.612 266.354 339.72 266.699 341.067 266.699ZM368.275 242.818V269H365.104V242.818H368.275ZM382.762 249.364V251.92H372.586V249.364H382.762ZM375.552 244.659H378.569V263.375C378.569 264.227 378.692 264.866 378.94 265.293C379.195 265.71 379.519 265.991 379.911 266.136C380.312 266.273 380.734 266.341 381.177 266.341C381.509 266.341 381.782 266.324 381.995 266.29C382.208 266.247 382.379 266.213 382.506 266.188L383.12 268.898C382.915 268.974 382.63 269.051 382.263 269.128C381.897 269.213 381.433 269.256 380.87 269.256C380.018 269.256 379.183 269.072 378.364 268.706C377.555 268.339 376.881 267.781 376.344 267.031C375.816 266.281 375.552 265.335 375.552 264.193V244.659ZM391.289 242.818L391.033 261.636H388.067L387.812 242.818H391.289ZM389.55 269.205C388.92 269.205 388.379 268.979 387.927 268.527C387.475 268.075 387.249 267.534 387.249 266.903C387.249 266.273 387.475 265.732 387.927 265.28C388.379 264.828 388.92 264.602 389.55 264.602C390.181 264.602 390.722 264.828 391.174 265.28C391.626 265.732 391.852 266.273 391.852 266.903C391.852 267.321 391.745 267.705 391.532 268.054C391.327 268.403 391.05 268.685 390.701 268.898C390.36 269.102 389.977 269.205 389.55 269.205Z" fill="black"/>
</svg>
