<svg width="154" height="68" viewBox="0 0 154 68" fill="none" xmlns="http://www.w3.org/2000/svg">
<path d="M37.3382 60.243C36.3282 59.7717 34.2745 58.829 31.1772 57.415C28.0798 56.001 24.5785 54.4187 20.6732 52.668C16.7005 50.9173 12.8288 49.234 9.05817 47.618C5.35484 46.002 2.82983 44.9247 1.48317 44.386L0.675168 43.073L0.776168 33.478L20.1682 25.196L38.2472 17.52L39.5602 18.328L41.4792 25.903C40.2672 26.307 37.7085 27.2497 33.8032 28.731C29.9652 30.145 26.3965 31.559 23.0972 32.973L10.4722 38.124V38.831L24.5112 44.891C28.4165 46.6417 31.8842 48.224 34.9142 49.638C38.0115 50.9847 40.0652 51.86 41.0752 52.264L41.5802 53.779L37.3382 60.243Z" fill="#429613"/>
<path d="M67.8078 67.515C66.7978 63.7443 64.6432 55.8663 61.3438 43.881C58.1118 31.8957 55.2502 21.863 52.7588 13.783C52.1528 11.6957 51.2438 10.1807 50.0318 9.238C48.8871 8.228 47.2711 7.68933 45.1838 7.622L44.7798 6.915L45.4868 0.955995C46.4295 0.955995 48.1465 0.989663 50.6378 1.057C53.1292 1.12433 55.6542 1.158 58.2128 1.158C61.2428 1.158 64.5422 1.057 68.1108 0.854996C71.7468 0.585662 74.1035 0.417329 75.1808 0.349996L75.6858 1.158L75.2818 7.117C72.9252 7.38633 71.2082 7.65566 70.1308 7.925C69.0535 8.127 68.3128 8.46366 67.9088 8.935C67.5722 9.40633 67.4038 10.1133 67.4038 11.056C67.4038 12.5373 68.7168 18.9003 71.3428 30.145C73.9688 41.3223 75.7868 48.931 76.7968 52.971H78.3118C79.9278 48.8637 82.4865 41.154 85.9878 29.842C89.4892 18.53 91.2398 12.1333 91.2398 10.652C91.2398 9.50733 90.8358 8.69933 90.0278 8.228C89.2872 7.75666 87.9405 7.52099 85.9878 7.52099H81.9478L81.5438 6.814L82.1498 0.652999C83.0925 0.720331 85.1462 0.82133 88.3108 0.955995C91.5428 1.09066 94.4718 1.158 97.0978 1.158C99.7912 1.158 102.215 1.12433 104.37 1.057C106.592 0.989663 108.073 0.955995 108.814 0.955995L108.107 7.52099C106.423 7.79033 105.245 8.26166 104.572 8.935C103.898 9.541 103.225 10.8203 102.552 12.773L83.8668 65.495L67.8078 67.515Z" fill="black"/>
<path d="M114.573 59.435L112.553 51.86C113.698 51.456 116.223 50.5133 120.128 49.032C124.034 47.5507 127.636 46.103 130.935 44.689L143.56 39.639V38.932L129.622 32.771L112.957 25.499L112.452 23.984L116.694 17.52C117.704 17.9913 119.758 18.934 122.855 20.348C125.953 21.762 129.454 23.3443 133.359 25.095C137.332 26.8457 141.17 28.529 144.873 30.145C148.644 31.761 151.203 32.8383 152.549 33.377L153.357 34.69L153.256 44.285L133.864 52.567L115.886 60.243L114.573 59.435Z" fill="#91C129"/>
</svg>
